<?xml version="1.0" standalone="no"?>
<!DOCTYPE svg PUBLIC "-//W3C//DTD SVG 20010904//EN"
 "http://www.w3.org/TR/2001/REC-SVG-20010904/DTD/svg10.dtd">
<svg version="1.0" xmlns="http://www.w3.org/2000/svg"
 width="512.000000pt" height="512.000000pt" viewBox="0 0 512.000000 512.000000"
 preserveAspectRatio="xMidYMid meet">
<metadata>
Created by potrace 1.11, written by Peter Selinger 2001-2013
</metadata>
<g transform="translate(0.000000,512.000000) scale(0.100000,-0.100000)"
fill="#000000" stroke="none">
<path d="M2950 4659 c-52 -32 -56 -54 -55 -317 1 -260 4 -275 55 -305 58 -35
134 -10 159 50 17 43 10 511 -8 539 -33 50 -99 64 -151 33z"/>
<path d="M1544 4080 c-27 -11 -59 -57 -62 -92 -5 -44 20 -76 197 -253 l171
-170 51 0 c45 0 54 4 80 33 36 40 39 96 8 136 -30 38 -313 321 -340 340 -25
17 -71 20 -105 6z"/>
<path d="M4375 4080 c-23 -9 -365 -351 -366 -366 0 -5 -2 -18 -4 -29 -17 -86
93 -157 165 -107 35 23 324 314 345 346 9 14 17 42 17 63 0 30 -7 44 -36 70
-37 34 -77 42 -121 23z"/>
<path d="M2840 3799 c-249 -36 -482 -143 -655 -300 -54 -49 -73 -69 -143 -148
-67 -75 -169 -256 -208 -369 -16 -45 -22 -52 -39 -47 -67 19 -135 35 -170 40
-47 6 -221 7 -250 1 -11 -2 -41 -7 -67 -10 -170 -23 -383 -134 -537 -281 -73
-70 -79 -73 -136 -80 -78 -9 -215 -61 -287 -109 -215 -142 -334 -351 -343
-601 -12 -323 166 -599 466 -724 39 -16 48 -25 64 -67 108 -289 353 -521 647
-613 112 -35 181 -45 318 -44 110 1 153 5 231 26 127 33 226 76 324 142 l81
54 40 -14 c148 -51 352 -43 506 19 247 100 434 341 464 600 4 28 7 52 8 53 1
2 18 5 37 7 19 3 45 8 59 10 14 3 39 8 55 12 106 21 287 101 409 181 102 67
279 250 345 356 100 162 164 342 187 527 6 47 5 224 -1 279 -25 227 -124 470
-258 635 -187 231 -419 376 -715 447 -96 23 -332 33 -432 18z m357 -228 c344
-69 623 -301 763 -636 73 -174 88 -431 36 -629 -85 -327 -321 -585 -639 -700
-51 -19 -111 -37 -132 -40 -22 -3 -51 -8 -66 -11 -23 -5 -27 -1 -58 77 -18 46
-41 97 -50 113 -17 29 -17 32 3 85 16 44 20 79 20 180 0 112 -3 132 -27 195
-67 170 -199 299 -365 357 -57 19 -86 23 -192 22 -69 0 -136 -5 -149 -11 -22
-9 -29 -4 -73 48 -49 60 -141 141 -210 186 -30 21 -37 30 -32 47 81 266 278
502 523 626 81 40 201 79 295 94 91 14 273 13 353 -3z m-1571 -823 c214 -42
408 -168 524 -338 45 -66 58 -78 100 -90 26 -7 44 -4 94 16 326 136 629 -196
466 -511 -29 -57 -25 -81 25 -159 143 -221 118 -485 -64 -667 -107 -107 -219
-153 -371 -153 -79 1 -108 6 -170 29 -130 48 -139 47 -231 -24 -91 -71 -186
-122 -279 -150 -417 -125 -859 109 -990 524 -13 39 -31 80 -42 91 -11 12 -54
34 -96 49 -154 55 -258 148 -322 288 -34 76 -43 116 -44 202 -1 95 10 148 47
227 87 188 246 294 468 311 69 6 88 15 125 64 106 139 284 247 469 286 81 17
221 19 291 5z"/>
<path d="M4550 2670 c-77 -16 -112 -94 -73 -161 32 -53 54 -57 323 -55 228 1
247 2 272 21 46 34 60 97 32 144 -32 54 -40 55 -294 56 -129 0 -246 -2 -260
-5z"/>
<path d="M4053 1551 c-28 -18 -42 -40 -50 -81 -7 -41 26 -84 190 -248 157
-157 178 -174 214 -179 74 -10 123 37 123 116 0 37 -9 48 -172 212 -95 96
-184 180 -197 187 -33 17 -71 15 -108 -7z"/>
</g>
</svg>
